<svg width="33" height="33" viewBox="0 0 33 33" fill="none" xmlns="http://www.w3.org/2000/svg">
<path d="M28.9 16.5V32H4.09999V16.5M16.5 32V8.74999M16.5 8.74999H9.52501C8.49729 8.74999 7.51167 8.34176 6.78497 7.61505C6.05827 6.88835 5.65 5.90274 5.65 4.87501C5.65 3.84729 6.05827 2.86167 6.78497 2.13497C7.51167 1.40826 8.49729 1 9.52501 1C14.95 1 16.5 8.74999 16.5 8.74999ZM16.5 8.74999H23.475C24.5027 8.74999 25.4884 8.34176 26.2151 7.61505C26.9418 6.88835 27.35 5.90274 27.35 4.87501C27.35 3.84729 26.9418 2.86167 26.2151 2.13497C25.4884 1.40826 24.5027 1 23.475 1C18.05 1 16.5 8.74999 16.5 8.74999ZM1 8.74999H32V16.5H1V8.74999Z" stroke="#D40606" stroke-width="2" stroke-linecap="round" stroke-linejoin="round"/>
</svg>
