<svg width="34" height="32" viewBox="0 0 34 32" fill="none" xmlns="http://www.w3.org/2000/svg">
<path d="M33.4634 5.30574C33.2366 4.75825 32.7008 4.40043 32.1083 4.40043H29.1754V1.46749C29.1754 0.875036 28.8176 0.339285 28.2701 0.112471C27.7226 -0.116299 27.0911 0.0107955 26.6726 0.431184L21.7844 5.31942C21.5087 5.59512 21.3542 5.96858 21.3542 6.35573V10.147L15.4297 16.0716C14.8568 16.6445 14.8568 17.5733 15.4297 18.1462C15.7151 18.4316 16.0906 18.5763 16.466 18.5763C16.8414 18.5763 17.2168 18.4336 17.5023 18.1462L23.4268 12.2216H27.2182C27.6073 12.2216 27.9807 12.0671 28.2545 11.7915L33.1427 6.90321C33.5631 6.48478 33.6863 5.85322 33.4614 5.30574H33.4634Z" fill="white"/>
<path d="M15.6424 31.7523C7.01756 31.7523 0 24.7348 0 16.11C0 6.53294 8.59743 -1.14159 18.5734 0.751134C19.3692 0.901692 19.8932 1.67012 19.7426 2.46397C19.5921 3.26173 18.8099 3.78184 18.0278 3.63128C17.2144 3.47682 16.4128 3.3986 15.6424 3.3986C8.63458 3.3986 2.93294 9.10024 2.93294 16.108C2.93294 23.1158 8.63458 28.8174 15.6424 28.8174C22.6501 28.8174 28.3518 23.1158 28.3518 16.108C28.3518 15.3337 28.2736 14.5301 28.1211 13.7226C27.9685 12.9268 28.4906 12.1603 29.2864 12.0078C30.0842 11.8553 30.8487 12.3773 31.0012 13.1751C31.1909 14.1625 31.2867 15.1499 31.2867 16.108C31.2867 24.7328 24.2691 31.7504 15.6443 31.7504L15.6424 31.7523Z" fill="white"/>
<path d="M15.6423 25.8864C10.2516 25.8864 5.86584 21.5007 5.86584 16.1099C5.86584 10.7192 10.2516 6.33344 15.6423 6.33344C16.1546 6.33344 16.6454 6.40383 17.1362 6.47813C17.9359 6.60131 18.4853 7.35019 18.3621 8.1499C18.2409 8.95158 17.5057 9.50492 16.6904 9.37588C16.3462 9.32308 16.0021 9.26442 15.6443 9.26442C11.8706 9.26442 8.80074 12.3342 8.80074 16.108C8.80074 19.8817 11.8706 22.9515 15.6443 22.9515C19.418 22.9515 22.4878 19.8817 22.4878 16.108C22.4878 15.7501 22.4311 15.408 22.3764 15.0638C22.2532 14.2641 22.8007 13.5152 23.6004 13.3901C24.4138 13.2767 25.1509 13.8144 25.2741 14.6141C25.3504 15.1049 25.4188 15.5976 25.4188 16.1099C25.4188 21.5007 21.0331 25.8864 15.6423 25.8864Z" fill="white"/>
</svg>
